<!--effective-->



<!--strategy-->
<svg width="264" height="112" viewBox="0 0 264 112" fill="none" xmlns="http://www.w3.org/2000/svg">
<rect x="0.5" y="0.5" width="263" height="111" rx="3.5" fill="#F4F4FD" stroke="#8E8F99"/>
<path d="M161.546 68.1952L144.66 51.1851L146.534 41.9541C147.018 42.1429 147.532 42.2416 148.051 42.2453H148.064C150.448 42.2735 152.404 40.3633 152.432 37.9788C152.461 35.5943 150.55 33.6384 148.166 33.6101C145.781 33.582 143.825 35.4921 143.797 37.8767C143.791 38.3869 143.875 38.8941 144.047 39.3749L134.127 40.5856L117.945 24.32C117.747 24.1175 117.476 24.0023 117.192 24C116.912 24.0015 116.644 24.1129 116.445 24.3104L113.42 27.3184C113.004 27.7349 113.004 28.4101 113.42 28.8267L115.048 30.4779C108.742 42.0737 110.79 56.4335 120.087 65.8037C120.172 65.8853 120.271 65.9513 120.379 65.9989C120.312 66.3599 120.277 66.7261 120.275 67.0933V79.4667H107.475C104.531 79.4701 102.145 81.856 102.141 84.8V86.9333C102.141 87.5224 102.619 88 103.208 88H152.275C152.864 88 153.341 87.5224 153.341 86.9333V84.8C153.338 81.856 150.952 79.4701 148.008 79.4667H135.208V73.9829C137.213 74.4035 139.256 74.6179 141.305 74.6229C146.221 74.6176 151.059 73.392 155.385 71.056L157.021 72.7019C157.22 72.9044 157.491 73.0196 157.775 73.0219C158.055 73.0204 158.323 72.9089 158.521 72.7115L161.546 69.7035C161.963 69.2869 161.963 68.6117 161.546 68.1952ZM146.56 36.4661C147.395 35.6352 148.746 35.6389 149.577 36.4743C150.407 37.3096 150.404 38.6604 149.568 39.4912C149.169 39.8889 148.627 40.1121 148.063 40.112H148.057C146.879 40.1059 145.929 39.1459 145.935 37.9676C145.938 37.4036 146.164 36.8639 146.564 36.4661H146.56ZM144.049 43.4752L142.852 49.3664L140.501 47.0016L144.049 43.4752ZM142.837 41.6715L138.997 45.4891L136.026 42.5024L142.837 41.6715ZM148.008 81.6C149.775 81.6 151.208 83.0327 151.208 84.8V85.8667H104.275V84.8C104.275 83.0327 105.707 81.6 107.475 81.6H148.008ZM133.075 77.3333V79.4667H122.408V77.3333H133.075ZM122.408 75.2V67.0933C122.408 64.5056 124.801 62.4 127.741 62.4C130.682 62.4 133.075 64.5056 133.075 67.0933V75.2H122.408ZM135.208 71.808V67.0933C135.208 63.3291 131.859 60.2667 127.741 60.2667C125.079 60.2259 122.59 61.5809 121.179 63.8389C113.064 55.2913 111.236 42.5485 116.622 32.0647L153.826 69.4816C148.081 72.404 141.495 73.2268 135.208 71.808ZM157.786 70.4405L156.283 68.9291L117.181 29.5915L115.672 28.0789L117.181 26.5749L133.051 42.5344C133.059 42.5344 133.063 42.5483 133.071 42.5536L159.3 68.9365L157.786 70.4405Z" fill="#2E2F42"/>
<path d="M127.751 64.5333H127.741C125.974 64.5306 124.539 65.9612 124.537 67.7285C124.534 69.4958 125.965 70.9306 127.732 70.9333H127.741C129.509 70.936 130.944 69.5054 130.946 67.7381C130.949 65.9708 129.518 64.536 127.751 64.5333ZM128.498 68.4896C128.297 68.6893 128.025 68.801 127.741 68.8C127.152 68.7969 126.677 68.3169 126.68 67.7278C126.682 67.4458 126.795 67.176 126.995 66.977C127.193 66.7796 127.461 66.6681 127.741 66.6666C128.331 66.6697 128.806 67.1497 128.803 67.7388C128.801 68.0208 128.688 68.2906 128.488 68.4896H128.498Z" fill="#4D5AE5"/>
</svg>
<!--punctuality-->
<svg width="264" height="112" viewBox="0 0 264 112" fill="none" xmlns="http://www.w3.org/2000/svg">
<rect x="0.5" y="0.5" width="263" height="111" rx="3.5" fill="#F4F4FD" stroke="#8E8F99"/>
<g clip-path="url(#clip0_302815_4218)">
<path d="M162.593 54.6025C162.59 37.6978 148.883 23.9966 131.978 24C115.073 24.0034 101.372 37.7109 101.375 54.6157C101.378 67.9316 109.989 79.7178 122.674 83.7681C122.795 83.8062 122.921 83.8257 123.047 83.8252C123.289 83.8247 123.525 83.7603 123.732 83.6377C124.002 83.478 124.204 83.2241 124.299 82.9248L132.029 58.4248C134.142 58.4141 135.846 56.6919 135.835 54.5791C135.824 52.4658 134.103 50.7617 131.989 50.7725C131.421 50.7749 130.86 50.9058 130.349 51.1553L120.137 40.9419C119.63 40.4526 118.823 40.4668 118.334 40.9731C117.856 41.4678 117.856 42.251 118.334 42.7456L128.541 52.9639C127.757 54.5625 128.205 56.4922 129.613 57.582L122.248 80.9277C107.692 75.5659 100.239 59.4199 105.601 44.8643C110.963 30.3086 127.109 22.8555 141.665 28.2173C156.22 33.5791 163.673 49.7256 158.312 64.2808C155.692 71.3921 150.31 77.1431 143.387 80.2275L142.591 76.479C142.446 75.79 141.769 75.3496 141.08 75.4956C140.862 75.542 140.661 75.6441 140.495 75.792L132.821 82.6431C132.294 83.1113 132.248 83.9175 132.716 84.4439C132.869 84.6148 133.064 84.7417 133.283 84.8115L143.08 87.9385C143.75 88.1538 144.469 87.7852 144.684 87.1143C144.752 86.9024 144.764 86.6768 144.718 86.459L143.936 82.7808C155.264 78.0049 162.62 66.8965 162.593 54.6025ZM131.984 53.3272C132.688 53.3272 133.26 53.8984 133.26 54.6025C133.26 55.3071 132.688 55.8779 131.984 55.8779C131.28 55.8779 130.709 55.3071 130.709 54.6025C130.709 53.8984 131.28 53.3272 131.984 53.3272ZM136.185 83.0552L140.553 79.1587L141.759 84.8394L136.185 83.0552Z" fill="#2E2F42"/>
<path d="M130.709 30.3701V32.9209C130.709 33.6255 131.28 34.1963 131.984 34.1963C132.688 34.1963 133.26 33.6255 133.26 32.9209V30.3701C133.26 29.666 132.688 29.0947 131.984 29.0947C131.28 29.0947 130.709 29.666 130.709 30.3701Z" fill="#4D5AE5"/>
<path d="M107.752 53.3271C107.047 53.3271 106.477 53.8984 106.477 54.6025C106.477 55.3071 107.047 55.8779 107.752 55.8779H110.303C111.007 55.8779 111.578 55.3071 111.578 54.6025C111.578 53.8984 111.007 53.3271 110.303 53.3271H107.752Z" fill="#4D5AE5"/>
<path d="M156.216 55.8779C156.921 55.8779 157.492 55.3071 157.492 54.6025C157.492 53.8984 156.921 53.3271 156.216 53.3271H153.665C152.961 53.3271 152.39 53.8984 152.39 54.6025C152.39 55.3071 152.961 55.8779 153.665 55.8779H156.216Z" fill="#4D5AE5"/>
</g>
<defs>
<clipPath id="clip0_302815_4218">
<rect width="64" height="64" fill="white" transform="translate(100 24)"/>
</clipPath>
</defs>
</svg>
<!--diligence-->
<svg width="264" height="112" viewBox="0 0 264 112" fill="none" xmlns="http://www.w3.org/2000/svg">
<rect x="0.5" y="0.5" width="263" height="111" rx="3.5" fill="#F4F4FD" stroke="#8E8F99"/>
<g clip-path="url(#clip0_302815_4207)">
<path d="M129.851 53.9292H131.983V63.5242H129.851V53.9292Z" fill="#4D5AE5"/>
<path d="M138.38 58.1936H140.512V63.5242H138.38V58.1936Z" fill="#4D5AE5"/>
<path d="M121.322 61.392H123.454V63.5242H121.322V61.392Z" fill="#4D5AE5"/>
<path d="M114.926 60.3258H117.058V63.5241H114.926V60.3258Z" fill="#4D5AE5"/>
<path d="M103.198 80.5819H154.372C156.138 80.5819 157.57 79.1499 157.57 77.3836V73.1192C157.57 71.3529 156.138 69.9209 154.372 69.9209H153.305V43.3343L159.361 37.5977C160.767 38.2905 162.468 37.8699 163.388 36.6003C164.308 35.3312 164.179 33.5836 163.083 32.4634C161.986 31.3431 160.242 31.176 158.953 32.0678C157.664 32.96 157.206 34.6513 157.868 36.0719L153.305 40.3973V37.9376C153.305 36.1713 151.873 34.7393 150.107 34.7393H107.463C105.696 34.7393 104.264 36.1713 104.264 37.9376V69.9209H103.198C101.432 69.9209 100 71.3529 100 73.1192V77.3836C100 79.1499 101.432 80.5819 103.198 80.5819ZM160.768 33.6732C161.357 33.6732 161.834 34.1505 161.834 34.7393C161.834 35.328 161.357 35.8054 160.768 35.8054C160.179 35.8054 159.702 35.328 159.702 34.7393C159.702 34.1505 160.179 33.6732 160.768 33.6732ZM106.397 37.9376C106.397 37.3489 106.874 36.8715 107.463 36.8715H150.107C150.696 36.8715 151.173 37.3489 151.173 37.9376V42.4149L149.041 44.441V40.0698C149.041 39.4811 148.564 39.0037 147.975 39.0037H109.595C109.006 39.0037 108.529 39.4811 108.529 40.0698V66.7225C108.529 67.3113 109.006 67.7886 109.595 67.7886H147.975C148.564 67.7886 149.041 67.3113 149.041 66.7225V47.3738L151.173 45.3535V69.9209H106.397V37.9376ZM115.992 51.797C114.549 51.7929 113.283 52.7538 112.899 54.1442C112.515 55.5346 113.109 57.0094 114.35 57.7455C115.59 58.4815 117.17 58.2967 118.206 57.2936L121.912 59.1531C122.342 59.3686 122.865 59.2676 123.185 58.9079L131.062 50.0453L138.806 55.848C139.222 56.1593 139.802 56.126 140.178 55.7694L146.909 49.3941V65.6564H110.661V41.1359H146.909V46.4566L139.366 53.5997L131.557 47.7455C131.113 47.4134 130.489 47.4758 130.121 47.8897L122.135 56.8751L119.149 55.3821C119.171 55.2541 119.185 55.125 119.19 54.9953C119.19 53.2291 117.758 51.797 115.992 51.797ZM117.058 54.9953C117.058 55.5841 116.58 56.0615 115.992 56.0615C115.403 56.0615 114.926 55.5841 114.926 54.9953C114.926 54.4066 115.403 53.9292 115.992 53.9292C116.58 53.9292 117.058 54.4066 117.058 54.9953ZM123.454 72.0531H134.115V73.1192C134.115 73.7079 133.638 74.1853 133.049 74.1853H124.52C123.932 74.1853 123.454 73.7079 123.454 73.1192V72.0531ZM102.132 73.1192C102.132 72.5304 102.61 72.0531 103.198 72.0531H121.322V73.1192C121.322 74.8855 122.754 76.3175 124.52 76.3175H133.049C134.816 76.3175 136.248 74.8855 136.248 73.1192V72.0531H154.372C154.96 72.0531 155.438 72.5304 155.438 73.1192V77.3836C155.438 77.9724 154.96 78.4497 154.372 78.4497H103.198C102.61 78.4497 102.132 77.9724 102.132 77.3836V73.1192Z" fill="#2E2F42"/>
</g>
<defs>
<clipPath id="clip0_302815_4207">
<rect width="64" height="64" fill="white" transform="translate(100 24)"/>
</clipPath>
</defs>
</svg>
<!--technologies-->
<svg width="264" height="112" viewBox="0 0 264 112" fill="none" xmlns="http://www.w3.org/2000/svg">
<rect x="0.5" y="0.5" width="263" height="111" rx="3.5" fill="#F4F4FD" stroke="#8E8F99"/>
<path d="M163.948 33.0481C163.822 32.663 163.489 32.3815 163.087 32.3227L159.267 31.767L157.557 28.3046C157.198 27.5749 156.002 27.5749 155.644 28.3046L153.934 31.767L150.113 32.3229C149.711 32.3815 149.378 32.6621 149.251 33.0482C149.127 33.4344 149.23 33.8589 149.521 34.1416L152.287 36.8372L151.634 40.6431C151.566 41.0431 151.73 41.4474 152.058 41.6864C152.39 41.9275 152.823 41.9573 153.182 41.7674L156.6 39.97L160.018 41.7674C160.173 41.8495 160.345 41.89 160.515 41.89C160.735 41.89 160.956 41.8218 161.142 41.6863C161.47 41.4474 161.635 41.043 161.565 40.643L160.913 36.8371L163.679 34.1415C163.968 33.8578 164.073 33.4343 163.948 33.0481ZM159.022 35.702C158.772 35.9463 158.656 36.3004 158.716 36.6461L159.098 38.8743L157.097 37.8226C156.941 37.7404 156.771 37.6999 156.6 37.6999C156.429 37.6999 156.26 37.7404 156.103 37.8226L154.102 38.8743L154.483 36.6461C154.543 36.3004 154.428 35.9474 154.177 35.702L152.557 34.1234L154.795 33.798C155.143 33.7479 155.442 33.5293 155.598 33.2145L156.599 31.1878L157.599 33.2145C157.755 33.5291 158.055 33.7479 158.403 33.798L160.64 34.1234L159.022 35.702Z" fill="#4D5AE5"/>
<path d="M152.267 65.0444H150.134V67.1778H152.267V65.0444Z" fill="#4D5AE5"/>
<path d="M152.267 69.3112H150.134V71.4446H152.267V69.3112Z" fill="#4D5AE5"/>
<path d="M154.4 67.1778H152.267V69.3112H154.4V67.1778Z" fill="#4D5AE5"/>
<path d="M150.134 67.1778H148V69.3112H150.134V67.1778Z" fill="#4D5AE5"/>
<path d="M144.8 76.778H142.667V78.9113H144.8V76.778Z" fill="#4D5AE5"/>
<path d="M144.8 81.0446H142.667V83.1781H144.8V81.0446Z" fill="#4D5AE5"/>
<path d="M146.934 78.9113H144.8V81.0448H146.934V78.9113Z" fill="#4D5AE5"/>
<path d="M142.667 78.9113H140.533V81.0448H142.667V78.9113Z" fill="#4D5AE5"/>
<path d="M132 72.5113H129.867V74.6447H132V72.5113Z" fill="#4D5AE5"/>
<path d="M132 76.778H129.867V78.9113H132V76.778Z" fill="#4D5AE5"/>
<path d="M134.133 74.6445H132V76.7779H134.133V74.6445Z" fill="#4D5AE5"/>
<path d="M129.867 74.6445H127.733V76.7779H129.867V74.6445Z" fill="#4D5AE5"/>
<path d="M111.733 36.2439H109.6V38.3773H111.733V36.2439Z" fill="#4D5AE5"/>
<path d="M111.733 40.5108H109.6V42.6442H111.733V40.5108Z" fill="#4D5AE5"/>
<path d="M113.866 38.3774H111.733V40.5108H113.866V38.3774Z" fill="#4D5AE5"/>
<path d="M109.6 38.3774H107.466V40.5108H109.6V38.3774Z" fill="#4D5AE5"/>
<path d="M149.43 52.3189C148.855 51.5434 148.011 51.0443 147.053 50.9098C146.091 50.7733 145.141 51.026 144.373 51.6138L141.87 53.5327L141.869 53.5338L138.073 56.368L135.358 55.2864C140.2 53.1136 143.585 48.2698 143.585 42.6462C143.585 35.0002 137.34 28.7793 129.663 28.7793C121.986 28.7793 115.74 35.0002 115.74 42.6462C115.74 45.4175 116.569 47.9945 117.981 50.163L112.453 50.115C112.45 50.115 112.447 50.115 112.443 50.115C112.426 50.115 112.412 50.1235 112.396 50.1247C112.291 50.1289 112.187 50.1503 112.086 50.1865C112.06 50.1962 112.034 50.2015 112.009 50.2132C111.997 50.2185 111.984 50.2195 111.971 50.2259L105.505 53.4185C105.504 53.4185 105.503 53.4185 105.503 53.4195L101.716 55.2405C101.674 55.2586 101.632 55.2831 101.59 55.3109C100.081 56.3156 99.5664 58.289 100.393 59.9018C100.834 60.7594 101.584 61.391 102.505 61.68C102.86 61.7908 103.223 61.8453 103.584 61.8453C104.163 61.8453 104.737 61.7035 105.262 61.423L108.038 59.9467L112.566 57.6085L115.28 57.5925L104.396 68.4237C104.395 68.4248 104.394 68.4248 104.393 68.4258L101.716 71.0925C101.083 71.7219 100.735 72.557 100.735 73.4478C100.735 74.3374 101.083 75.1747 101.716 75.8052C102.365 76.4516 103.22 76.7758 104.074 76.7758C104.93 76.7758 105.783 76.4516 106.435 75.8052L109.063 73.1875L112.545 70.588L114.346 72.3821L110.823 75.8904C110.822 75.8916 110.821 75.8916 110.82 75.8926L108.142 78.5592C107.51 79.1886 107.162 80.0237 107.162 80.9145C107.162 81.8041 107.51 82.6414 108.142 83.2719C108.792 83.9183 109.647 84.2426 110.502 84.2426C111.356 84.2426 112.212 83.9183 112.862 83.2719L115.541 80.6052L119.826 76.3386C119.827 76.3374 119.827 76.3364 119.828 76.3353L121.847 74.3353L121.839 74.3278C121.852 74.315 121.87 74.3106 121.883 74.2969L132.215 62.9805L139.157 63.9682C139.207 63.9757 139.257 63.9789 139.307 63.9789C139.437 63.9789 139.561 63.948 139.682 63.9021C139.717 63.8894 139.748 63.8722 139.781 63.8552C139.819 63.836 139.86 63.8254 139.896 63.8009L146.323 59.5342C146.347 59.5182 146.359 59.4925 146.382 59.4755C146.407 59.4553 146.439 59.4468 146.463 59.4243L149.006 57.0424C150.329 55.8026 150.511 53.7717 149.43 52.3189ZM104.261 59.5403C103.914 59.7259 103.521 59.7632 103.144 59.6438C102.771 59.5275 102.468 59.2725 102.291 58.928C101.969 58.3008 102.155 57.537 102.719 57.1243L105.347 55.8602L105.979 57.7088L106.245 58.4853L104.261 59.5403ZM111.255 55.8849L108.159 57.4849L107.648 55.9915L107.281 54.9184L111.334 52.9172L111.255 55.8849ZM141.454 42.644C141.454 44.4808 141.016 46.2132 140.256 47.763L131.893 43.9646C131.806 42.8179 131.211 41.8142 130.317 41.189L133.245 31.4684C138 32.981 141.454 37.4173 141.454 42.644ZM117.876 42.644C117.876 36.1746 123.165 30.9105 129.665 30.9105C130.171 30.9105 130.665 30.9531 131.155 31.015L128.291 40.5224C128.253 40.5213 128.216 40.5106 128.177 40.5106C126.112 40.5106 124.432 42.1853 124.432 44.2441C124.432 46.3027 126.112 47.9775 128.177 47.9775C129.566 47.9775 130.766 47.2106 131.413 46.0883L139.138 49.5978C136.989 52.4906 133.549 54.3776 129.665 54.3776C123.165 54.3776 117.876 49.1135 117.876 42.644ZM129.789 44.2441C129.789 45.1262 129.065 45.8441 128.177 45.8441C127.288 45.8441 126.565 45.1262 126.565 44.2441C126.565 43.3619 127.288 42.644 128.177 42.644C129.065 42.644 129.789 43.3619 129.789 44.2441ZM104.93 74.2925C104.457 74.7608 103.692 74.7598 103.221 74.2936C102.994 74.0664 102.869 73.7668 102.869 73.4478C102.869 73.1299 102.994 72.8301 103.221 72.6051L105.145 70.6882L106.847 72.3832L104.93 74.2925ZM111.357 81.7594C110.885 82.2276 110.119 82.2288 109.648 81.7605C109.42 81.5333 109.296 81.2336 109.296 80.9146C109.296 80.5967 109.42 80.297 109.648 80.072L111.573 78.1541L112.378 78.9552L113.276 79.8491L111.357 81.7594ZM118.321 74.8217C118.32 74.8227 118.319 74.8227 118.318 74.8238L114.788 78.3438L113.982 77.5427L113.084 76.6488L116.611 73.1384C116.611 73.1384 116.611 73.1384 116.611 73.1374C116.612 73.1363 116.613 73.1363 116.614 73.1353C116.694 73.0553 116.744 72.9593 116.793 72.8644C116.807 72.8366 116.834 72.8131 116.846 72.7844C116.879 72.7023 116.884 72.6138 116.897 72.5272C116.903 72.4781 116.925 72.4324 116.925 72.3821C116.925 72.3106 116.899 72.2414 116.884 72.1709C116.871 72.1069 116.871 72.0417 116.847 71.98C116.806 71.8797 116.737 71.7912 116.664 71.7047C116.644 71.6812 116.637 71.6514 116.614 71.629C116.614 71.629 116.614 71.629 116.613 71.629C116.612 71.628 116.612 71.6257 116.611 71.6247L113.397 68.4247C113.363 68.3906 113.319 68.3767 113.281 68.3479C113.224 68.3042 113.17 68.2637 113.107 68.2327C113.046 68.2028 112.984 68.1847 112.92 68.1676C112.852 68.1483 112.786 68.1334 112.714 68.1281C112.649 68.1238 112.588 68.1302 112.523 68.1377C112.452 68.1462 112.385 68.1558 112.315 68.1782C112.248 68.1996 112.189 68.2326 112.127 68.2678C112.087 68.2902 112.042 68.2977 112.005 68.3254L108.458 70.973L106.657 69.1788L111.455 64.4065L120.176 72.9838L118.321 74.8217ZM131.958 60.7883C131.928 60.7841 131.899 60.7958 131.868 60.7937C131.79 60.7894 131.715 60.7948 131.637 60.8076C131.577 60.8182 131.519 60.8299 131.461 60.8502C131.393 60.8737 131.331 60.9057 131.268 60.9441C131.208 60.9803 131.154 61.0187 131.102 61.0667C131.076 61.0891 131.045 61.0998 131.022 61.1253L121.625 71.4167L112.969 62.9035L118.635 57.2671C119.053 56.8511 119.055 56.1759 118.639 55.7577C118.429 55.5476 118.152 55.4441 117.876 55.4452V55.4442L113.439 55.4709L113.494 52.2559L119.702 52.3093C122.232 54.8971 125.761 56.511 129.665 56.511C130.54 56.511 131.393 56.4204 132.224 56.2656C132.304 56.3296 132.383 56.3948 132.483 56.4353L137.302 58.3553L137.607 59.8721L137.964 61.6427L131.958 60.7883ZM140.041 61.1446L139.414 58.0288L142.307 55.8687L143.065 56.8735L144.201 58.3818L140.041 61.1446ZM147.548 55.4826L145.872 57.0528L144.01 54.5802L145.673 53.3056C145.983 53.0667 146.374 52.9696 146.758 53.0197C147.145 53.0741 147.486 53.2757 147.719 53.5882C148.152 54.1717 148.078 54.9856 147.548 55.4826Z" fill="#2E2F42"/>
<path d="M127.204 61.0881L122.918 56.8214C122.503 56.4065 121.829 56.4065 121.413 56.8214L117.128 61.0881C116.928 61.2897 116.815 61.5606 116.815 61.8443C116.815 62.1281 116.927 62.4001 117.128 62.6006L121.413 66.8673C121.621 67.0742 121.894 67.1777 122.166 67.1777C122.438 67.1777 122.711 67.0742 122.918 66.8673L127.204 62.6006C127.405 62.4001 127.519 62.1281 127.519 61.8443C127.519 61.5606 127.406 61.2886 127.204 61.0881ZM122.166 64.606L119.393 61.8443L122.166 59.0827L124.941 61.8443L122.166 64.606Z" fill="#2E2F42"/>
<path d="M134.329 34.1415L133.813 36.2131C133.955 36.2483 137.289 37.1166 137.289 40.5108H139.422C139.422 36.4765 136.091 34.5799 134.329 34.1415Z" fill="#2E2F42"/>
<path d="M139.422 42.644H137.289V44.7775H139.422V42.644Z" fill="#2E2F42"/>
</svg>

